<mxfile host="Electron" agent="Mozilla/5.0 (Windows NT 10.0; Win64; x64) AppleWebKit/537.36 (KHTML, like Gecko) draw.io/24.7.5 Chrome/126.0.6478.183 Electron/31.3.0 Safari/537.36" version="24.7.5">
  <diagram name="Page-1" id="lCKV-h0BGTe5zPs4r5wq">
    <mxGraphModel dx="1235" dy="3067" grid="1" gridSize="10" guides="1" tooltips="1" connect="1" arrows="1" fold="1" page="1" pageScale="1" pageWidth="1654" pageHeight="2336" math="0" shadow="0">
      <root>
        <mxCell id="0" />
        <mxCell id="1" parent="0" />
        <mxCell id="_kBvnXGEQScdpB4xqNux-20" value="" style="rounded=0;whiteSpace=wrap;html=1;align=center;" vertex="1" parent="1">
          <mxGeometry x="120" y="-2320" width="950" height="560" as="geometry" />
        </mxCell>
        <mxCell id="_kBvnXGEQScdpB4xqNux-21" value="Automotive Engine Tuning Program" style="rounded=0;whiteSpace=wrap;html=1;" vertex="1" parent="1">
          <mxGeometry x="120" y="-2320" width="950" height="30" as="geometry" />
        </mxCell>
        <mxCell id="_kBvnXGEQScdpB4xqNux-22" value="Welcome to our tuning program&lt;br&gt;Thanks for choosen Root Tuning!" style="rounded=1;whiteSpace=wrap;html=1;" vertex="1" parent="1">
          <mxGeometry x="405" y="-2290" width="380" height="60" as="geometry" />
        </mxCell>
        <mxCell id="_kBvnXGEQScdpB4xqNux-23" value="Displacement in Cubic Inches" style="rounded=0;whiteSpace=wrap;html=1;" vertex="1" parent="1">
          <mxGeometry x="170" y="-2180" width="170" height="40" as="geometry" />
        </mxCell>
        <mxCell id="_kBvnXGEQScdpB4xqNux-24" value="(Empty input box)" style="rounded=0;whiteSpace=wrap;html=1;" vertex="1" parent="1">
          <mxGeometry x="195" y="-2140" width="120" height="60" as="geometry" />
        </mxCell>
        <mxCell id="_kBvnXGEQScdpB4xqNux-25" value="Displacement in Cubic Inches" style="rounded=0;whiteSpace=wrap;html=1;" vertex="1" parent="1">
          <mxGeometry x="170" y="-2180" width="170" height="40" as="geometry" />
        </mxCell>
        <mxCell id="_kBvnXGEQScdpB4xqNux-26" value="Make of Engine" style="rounded=0;whiteSpace=wrap;html=1;" vertex="1" parent="1">
          <mxGeometry x="380" y="-2180" width="170" height="40" as="geometry" />
        </mxCell>
        <mxCell id="_kBvnXGEQScdpB4xqNux-27" value="(Drop down menu to select)" style="rounded=0;whiteSpace=wrap;html=1;" vertex="1" parent="1">
          <mxGeometry x="405" y="-2140" width="120" height="60" as="geometry" />
        </mxCell>
        <mxCell id="_kBvnXGEQScdpB4xqNux-28" value="Firing Order" style="rounded=0;whiteSpace=wrap;html=1;" vertex="1" parent="1">
          <mxGeometry x="590" y="-2180" width="170" height="40" as="geometry" />
        </mxCell>
        <mxCell id="_kBvnXGEQScdpB4xqNux-29" value="(Empty input Box)" style="rounded=0;whiteSpace=wrap;html=1;" vertex="1" parent="1">
          <mxGeometry x="615" y="-2140" width="120" height="60" as="geometry" />
        </mxCell>
        <mxCell id="_kBvnXGEQScdpB4xqNux-30" value="Number of Cylinders" style="rounded=0;whiteSpace=wrap;html=1;" vertex="1" parent="1">
          <mxGeometry x="800" y="-2180" width="170" height="40" as="geometry" />
        </mxCell>
        <mxCell id="_kBvnXGEQScdpB4xqNux-31" value="(Drop down menu to select)" style="rounded=0;whiteSpace=wrap;html=1;" vertex="1" parent="1">
          <mxGeometry x="825" y="-2140" width="120" height="60" as="geometry" />
        </mxCell>
        <mxCell id="_kBvnXGEQScdpB4xqNux-32" value="Fueling&lt;br&gt;(Selection box to open window)" style="rounded=0;whiteSpace=wrap;html=1;" vertex="1" parent="1">
          <mxGeometry x="300" y="-2020" width="120" height="60" as="geometry" />
        </mxCell>
        <mxCell id="_kBvnXGEQScdpB4xqNux-33" value="Airflow&lt;br&gt;(Selection box to open window)" style="rounded=0;whiteSpace=wrap;html=1;" vertex="1" parent="1">
          <mxGeometry x="510" y="-2020" width="120" height="60" as="geometry" />
        </mxCell>
        <mxCell id="_kBvnXGEQScdpB4xqNux-34" value="Spark&lt;br&gt;(Selection box to open window)" style="rounded=0;whiteSpace=wrap;html=1;" vertex="1" parent="1">
          <mxGeometry x="720" y="-2020" width="120" height="60" as="geometry" />
        </mxCell>
        <mxCell id="_kBvnXGEQScdpB4xqNux-35" value="Area where data will output from intergers and information that is inputed, after it is calculated." style="rounded=1;whiteSpace=wrap;html=1;" vertex="1" parent="1">
          <mxGeometry x="140" y="-1940" width="910" height="160" as="geometry" />
        </mxCell>
        <mxCell id="_kBvnXGEQScdpB4xqNux-36" value="" style="rounded=0;whiteSpace=wrap;html=1;" vertex="1" parent="1">
          <mxGeometry x="85" y="-1710" width="500" height="260" as="geometry" />
        </mxCell>
        <mxCell id="_kBvnXGEQScdpB4xqNux-38" value="Fueling" style="rounded=0;whiteSpace=wrap;html=1;" vertex="1" parent="1">
          <mxGeometry x="85" y="-1740" width="500" height="30" as="geometry" />
        </mxCell>
        <mxCell id="_kBvnXGEQScdpB4xqNux-39" value="Number of injectors" style="rounded=0;whiteSpace=wrap;html=1;" vertex="1" parent="1">
          <mxGeometry x="110" y="-1680" width="120" height="50" as="geometry" />
        </mxCell>
        <mxCell id="_kBvnXGEQScdpB4xqNux-40" value="(Drop down menu)" style="rounded=0;whiteSpace=wrap;html=1;" vertex="1" parent="1">
          <mxGeometry x="250" y="-1670" width="120" height="30" as="geometry" />
        </mxCell>
        <mxCell id="_kBvnXGEQScdpB4xqNux-41" value="Size of injectors in lbs" style="rounded=0;whiteSpace=wrap;html=1;" vertex="1" parent="1">
          <mxGeometry x="110" y="-1610" width="120" height="50" as="geometry" />
        </mxCell>
        <mxCell id="_kBvnXGEQScdpB4xqNux-42" value="(Input box)" style="rounded=0;whiteSpace=wrap;html=1;" vertex="1" parent="1">
          <mxGeometry x="250" y="-1600" width="120" height="30" as="geometry" />
        </mxCell>
        <mxCell id="_kBvnXGEQScdpB4xqNux-43" value="Fuel psi at rail" style="rounded=0;whiteSpace=wrap;html=1;" vertex="1" parent="1">
          <mxGeometry x="110" y="-1540" width="120" height="50" as="geometry" />
        </mxCell>
        <mxCell id="_kBvnXGEQScdpB4xqNux-44" value="(Input box)" style="rounded=0;whiteSpace=wrap;html=1;" vertex="1" parent="1">
          <mxGeometry x="250" y="-1530" width="120" height="30" as="geometry" />
        </mxCell>
        <mxCell id="_kBvnXGEQScdpB4xqNux-45" value="" style="rounded=0;whiteSpace=wrap;html=1;" vertex="1" parent="1">
          <mxGeometry x="350" y="-1390" width="500" height="370" as="geometry" />
        </mxCell>
        <mxCell id="_kBvnXGEQScdpB4xqNux-46" value="Airflow" style="rounded=0;whiteSpace=wrap;html=1;" vertex="1" parent="1">
          <mxGeometry x="350" y="-1420" width="500" height="30" as="geometry" />
        </mxCell>
        <mxCell id="_kBvnXGEQScdpB4xqNux-47" value="Throttle body size in mm" style="rounded=0;whiteSpace=wrap;html=1;" vertex="1" parent="1">
          <mxGeometry x="375" y="-1360" width="120" height="50" as="geometry" />
        </mxCell>
        <mxCell id="_kBvnXGEQScdpB4xqNux-48" value="(Input box)" style="rounded=0;whiteSpace=wrap;html=1;" vertex="1" parent="1">
          <mxGeometry x="515" y="-1350" width="120" height="30" as="geometry" />
        </mxCell>
        <mxCell id="_kBvnXGEQScdpB4xqNux-49" value="Mass air flow hertz scale" style="rounded=0;whiteSpace=wrap;html=1;" vertex="1" parent="1">
          <mxGeometry x="375" y="-1290" width="120" height="50" as="geometry" />
        </mxCell>
        <mxCell id="_kBvnXGEQScdpB4xqNux-50" value="(Drop down menu)" style="rounded=0;whiteSpace=wrap;html=1;" vertex="1" parent="1">
          <mxGeometry x="515" y="-1280" width="120" height="30" as="geometry" />
        </mxCell>
        <mxCell id="_kBvnXGEQScdpB4xqNux-51" value="Desired Idle Range" style="rounded=0;whiteSpace=wrap;html=1;" vertex="1" parent="1">
          <mxGeometry x="375" y="-1150" width="120" height="50" as="geometry" />
        </mxCell>
        <mxCell id="_kBvnXGEQScdpB4xqNux-52" value="(Drop down menu)" style="rounded=0;whiteSpace=wrap;html=1;" vertex="1" parent="1">
          <mxGeometry x="515" y="-1140" width="120" height="30" as="geometry" />
        </mxCell>
        <mxCell id="_kBvnXGEQScdpB4xqNux-53" value="(Drop down menu)" style="rounded=0;whiteSpace=wrap;html=1;" vertex="1" parent="1">
          <mxGeometry x="655" y="-1280" width="120" height="30" as="geometry" />
        </mxCell>
        <mxCell id="_kBvnXGEQScdpB4xqNux-54" value="RPM Scale" style="rounded=0;whiteSpace=wrap;html=1;" vertex="1" parent="1">
          <mxGeometry x="375" y="-1220" width="120" height="50" as="geometry" />
        </mxCell>
        <mxCell id="_kBvnXGEQScdpB4xqNux-55" value="(Drop down menu)" style="rounded=0;whiteSpace=wrap;html=1;" vertex="1" parent="1">
          <mxGeometry x="515" y="-1210" width="120" height="30" as="geometry" />
        </mxCell>
        <mxCell id="_kBvnXGEQScdpB4xqNux-56" value="(Drop down menu)" style="rounded=0;whiteSpace=wrap;html=1;" vertex="1" parent="1">
          <mxGeometry x="655" y="-1210" width="120" height="30" as="geometry" />
        </mxCell>
        <mxCell id="_kBvnXGEQScdpB4xqNux-57" value="" style="rounded=0;whiteSpace=wrap;html=1;" vertex="1" parent="1">
          <mxGeometry x="605" y="-1710" width="500" height="260" as="geometry" />
        </mxCell>
        <mxCell id="_kBvnXGEQScdpB4xqNux-58" value="Ignition Timing (spark)" style="rounded=0;whiteSpace=wrap;html=1;" vertex="1" parent="1">
          <mxGeometry x="605" y="-1740" width="500" height="30" as="geometry" />
        </mxCell>
        <mxCell id="_kBvnXGEQScdpB4xqNux-59" value="Timing at idle" style="rounded=0;whiteSpace=wrap;html=1;" vertex="1" parent="1">
          <mxGeometry x="630" y="-1680" width="120" height="50" as="geometry" />
        </mxCell>
        <mxCell id="_kBvnXGEQScdpB4xqNux-60" value="(Drop down menu)" style="rounded=0;whiteSpace=wrap;html=1;" vertex="1" parent="1">
          <mxGeometry x="770" y="-1670" width="120" height="30" as="geometry" />
        </mxCell>
        <mxCell id="_kBvnXGEQScdpB4xqNux-61" value="Timing at cruise" style="rounded=0;whiteSpace=wrap;html=1;" vertex="1" parent="1">
          <mxGeometry x="630" y="-1610" width="120" height="50" as="geometry" />
        </mxCell>
        <mxCell id="_kBvnXGEQScdpB4xqNux-63" value="Timing at wide open throttle" style="rounded=0;whiteSpace=wrap;html=1;" vertex="1" parent="1">
          <mxGeometry x="630" y="-1540" width="120" height="50" as="geometry" />
        </mxCell>
        <mxCell id="_kBvnXGEQScdpB4xqNux-65" value="(Drop down menu)" style="rounded=0;whiteSpace=wrap;html=1;" vertex="1" parent="1">
          <mxGeometry x="770" y="-1603" width="120" height="30" as="geometry" />
        </mxCell>
        <mxCell id="_kBvnXGEQScdpB4xqNux-66" value="(Drop down menu)" style="rounded=0;whiteSpace=wrap;html=1;" vertex="1" parent="1">
          <mxGeometry x="770" y="-1530" width="120" height="30" as="geometry" />
        </mxCell>
        <mxCell id="_kBvnXGEQScdpB4xqNux-68" value="" style="endArrow=none;html=1;rounded=0;entryX=0;entryY=0.5;entryDx=0;entryDy=0;" edge="1" parent="1" target="_kBvnXGEQScdpB4xqNux-32">
          <mxGeometry width="50" height="50" relative="1" as="geometry">
            <mxPoint x="120" y="-1990" as="sourcePoint" />
            <mxPoint x="240" y="-1997.9646017699117" as="targetPoint" />
          </mxGeometry>
        </mxCell>
        <mxCell id="_kBvnXGEQScdpB4xqNux-73" value="" style="endArrow=none;html=1;rounded=0;" edge="1" parent="1">
          <mxGeometry width="50" height="50" relative="1" as="geometry">
            <mxPoint x="295" y="-1980" as="sourcePoint" />
            <mxPoint x="295" y="-2000" as="targetPoint" />
          </mxGeometry>
        </mxCell>
        <mxCell id="_kBvnXGEQScdpB4xqNux-75" value="" style="endArrow=none;html=1;rounded=0;" edge="1" parent="1">
          <mxGeometry width="50" height="50" relative="1" as="geometry">
            <mxPoint x="290" y="-2000" as="sourcePoint" />
            <mxPoint x="290" y="-1980" as="targetPoint" />
          </mxGeometry>
        </mxCell>
        <mxCell id="_kBvnXGEQScdpB4xqNux-78" value="" style="endArrow=none;html=1;rounded=0;" edge="1" parent="1">
          <mxGeometry relative="1" as="geometry">
            <mxPoint x="40" y="-1750" as="sourcePoint" />
            <mxPoint x="120" y="-1990" as="targetPoint" />
          </mxGeometry>
        </mxCell>
        <mxCell id="_kBvnXGEQScdpB4xqNux-79" value="" style="edgeStyle=entityRelationEdgeStyle;fontSize=12;html=1;endArrow=ERzeroToMany;endFill=1;rounded=0;" edge="1" parent="1">
          <mxGeometry width="100" height="100" relative="1" as="geometry">
            <mxPoint x="40" y="-1750" as="sourcePoint" />
            <mxPoint x="85" y="-1720" as="targetPoint" />
          </mxGeometry>
        </mxCell>
        <mxCell id="_kBvnXGEQScdpB4xqNux-81" value="" style="endArrow=none;html=1;rounded=0;" edge="1" parent="1">
          <mxGeometry relative="1" as="geometry">
            <mxPoint x="750" y="-2050" as="sourcePoint" />
            <mxPoint x="1110" y="-1980" as="targetPoint" />
          </mxGeometry>
        </mxCell>
        <mxCell id="_kBvnXGEQScdpB4xqNux-82" value="" style="edgeStyle=entityRelationEdgeStyle;fontSize=12;html=1;endArrow=ERzeroToMany;endFill=1;rounded=0;" edge="1" parent="1" target="_kBvnXGEQScdpB4xqNux-46">
          <mxGeometry width="100" height="100" relative="1" as="geometry">
            <mxPoint x="1185" y="-1960" as="sourcePoint" />
            <mxPoint x="785" y="-1430" as="targetPoint" />
          </mxGeometry>
        </mxCell>
        <mxCell id="_kBvnXGEQScdpB4xqNux-87" value="" style="endArrow=none;html=1;rounded=0;" edge="1" parent="1">
          <mxGeometry relative="1" as="geometry">
            <mxPoint x="595" y="-2050" as="sourcePoint" />
            <mxPoint x="755" y="-2050" as="targetPoint" />
          </mxGeometry>
        </mxCell>
        <mxCell id="_kBvnXGEQScdpB4xqNux-88" value="" style="endArrow=none;html=1;rounded=0;exitX=0.75;exitY=0;exitDx=0;exitDy=0;" edge="1" parent="1" source="_kBvnXGEQScdpB4xqNux-33">
          <mxGeometry relative="1" as="geometry">
            <mxPoint x="605" y="-2030" as="sourcePoint" />
            <mxPoint x="600" y="-2050" as="targetPoint" />
          </mxGeometry>
        </mxCell>
        <mxCell id="_kBvnXGEQScdpB4xqNux-92" value="" style="line;strokeWidth=1;rotatable=0;dashed=0;labelPosition=right;align=left;verticalAlign=middle;spacingTop=0;spacingLeft=6;points=[];portConstraint=eastwest;" vertex="1" parent="1">
          <mxGeometry x="590" y="-2040" width="20" height="10" as="geometry" />
        </mxCell>
        <mxCell id="_kBvnXGEQScdpB4xqNux-95" value="" style="endArrow=none;html=1;rounded=0;" edge="1" parent="1">
          <mxGeometry relative="1" as="geometry">
            <mxPoint x="590" y="-2030" as="sourcePoint" />
            <mxPoint x="610" y="-2030" as="targetPoint" />
          </mxGeometry>
        </mxCell>
        <mxCell id="_kBvnXGEQScdpB4xqNux-96" value="" style="endArrow=none;html=1;rounded=0;" edge="1" parent="1">
          <mxGeometry relative="1" as="geometry">
            <mxPoint x="840" y="-1980" as="sourcePoint" />
            <mxPoint x="1170" y="-1930" as="targetPoint" />
          </mxGeometry>
        </mxCell>
        <mxCell id="_kBvnXGEQScdpB4xqNux-98" value="" style="edgeStyle=entityRelationEdgeStyle;fontSize=12;html=1;endArrow=ERzeroToMany;endFill=1;rounded=0;entryX=1;entryY=0.25;entryDx=0;entryDy=0;" edge="1" parent="1" target="_kBvnXGEQScdpB4xqNux-58">
          <mxGeometry width="100" height="100" relative="1" as="geometry">
            <mxPoint x="1170" y="-1930" as="sourcePoint" />
            <mxPoint x="1060" y="-1260" as="targetPoint" />
          </mxGeometry>
        </mxCell>
        <mxCell id="_kBvnXGEQScdpB4xqNux-99" value="" style="endArrow=none;html=1;rounded=0;" edge="1" parent="1">
          <mxGeometry relative="1" as="geometry">
            <mxPoint x="850" y="-1990" as="sourcePoint" />
            <mxPoint x="851" y="-1970" as="targetPoint" />
          </mxGeometry>
        </mxCell>
        <mxCell id="_kBvnXGEQScdpB4xqNux-100" value="" style="endArrow=none;html=1;rounded=0;" edge="1" parent="1">
          <mxGeometry relative="1" as="geometry">
            <mxPoint x="860" y="-1970" as="sourcePoint" />
            <mxPoint x="860" y="-1990" as="targetPoint" />
          </mxGeometry>
        </mxCell>
        <mxCell id="_kBvnXGEQScdpB4xqNux-101" value="" style="endArrow=none;html=1;rounded=0;" edge="1" parent="1">
          <mxGeometry relative="1" as="geometry">
            <mxPoint x="1110" y="-1980" as="sourcePoint" />
            <mxPoint x="1190" y="-1960" as="targetPoint" />
          </mxGeometry>
        </mxCell>
      </root>
    </mxGraphModel>
  </diagram>
</mxfile>
